
<svg version="1.0" xmlns="http://www.w3.org/2000/svg"
 width="865.000000pt" height="788.000000pt" viewBox="0 0 865.000000 788.000000"
 preserveAspectRatio="xMidYMid meet">

<g transform="translate(0.000000,788.000000) scale(0.100000,-0.100000)"
fill="#000000" stroke="none">
<path d="M2705 7744 c-145 -34 -256 -97 -369 -209 -45 -44 -103 -114 -129
-156 -43 -69 -112 -214 -122 -257 -3 -9 -13 -48 -23 -87 -33 -123 -42 -187
-48 -350 -8 -226 11 -430 54 -575 43 -144 147 -369 223 -480 193 -282 462
-470 743 -519 79 -14 144 -13 241 3 105 19 128 26 227 77 65 34 104 64 179
139 129 128 205 264 266 475 35 120 41 156 54 312 12 153 2 388 -21 473 -5 19
-11 46 -14 60 -7 43 -58 212 -83 280 -99 264 -299 531 -498 664 -180 121 -317
165 -506 164 -63 0 -141 -7 -174 -14z"/>
<path d="M5330 7695 c-308 -46 -577 -262 -809 -647 -59 -99 -146 -308 -176
-423 -44 -170 -55 -257 -54 -452 1 -106 5 -211 10 -234 5 -22 14 -66 18 -98
21 -129 74 -276 144 -396 57 -98 223 -263 308 -306 136 -68 188 -80 359 -80
147 0 160 1 247 30 51 17 109 40 130 52 257 143 414 309 578 614 99 182 139
290 178 480 30 142 33 180 30 390 -1 104 -8 185 -18 230 -45 196 -64 254 -126
377 -57 114 -90 161 -173 246 -130 134 -246 193 -433 221 -85 13 -102 13 -213
-4z"/>
<path d="M1050 6106 c-41 -7 -87 -18 -102 -24 -16 -6 -28 -9 -28 -7 0 7 -125
-60 -173 -94 -98 -67 -214 -214 -283 -358 -101 -212 -144 -441 -144 -758 0
-262 34 -436 135 -695 150 -383 378 -663 650 -795 223 -108 424 -110 635 -7
79 38 110 60 181 131 115 115 178 216 241 381 41 110 52 145 67 218 6 28 16
73 21 100 6 26 12 92 15 147 3 55 8 114 11 132 7 50 -14 297 -37 418 -54 281
-165 531 -348 780 -65 88 -240 257 -318 307 -171 110 -351 152 -523 124z"/>
<path d="M6935 5964 c-266 -64 -420 -149 -610 -339 -160 -159 -266 -307 -367
-510 -127 -254 -177 -475 -178 -793 -1 -200 8 -270 60 -467 14 -54 79 -185
127 -258 101 -152 241 -254 428 -313 83 -26 341 -26 430 0 76 23 249 105 306
146 24 17 60 41 79 55 54 36 220 202 282 280 125 159 234 355 301 540 56 158
65 192 97 396 27 175 -4 472 -70 664 -85 250 -228 434 -405 520 -125 61 -187
76 -330 80 -71 2 -139 2 -150 -1z"/>
<path d="M3940 5028 c-124 -25 -262 -80 -359 -143 -142 -92 -308 -257 -586
-584 -44 -52 -100 -117 -124 -145 -24 -28 -53 -62 -65 -76 -35 -42 -191 -233
-211 -261 -11 -14 -40 -52 -65 -84 -203 -260 -575 -757 -607 -811 -6 -10 -46
-74 -88 -142 -153 -246 -353 -686 -400 -877 -73 -305 -73 -658 0 -860 105
-291 213 -455 392 -596 80 -63 266 -169 296 -169 8 0 34 -9 58 -19 45 -20 175
-55 239 -65 158 -24 237 -28 324 -16 90 12 257 56 319 84 18 8 41 16 52 19 11
3 99 33 195 67 174 61 291 95 425 121 89 18 446 19 530 1 33 -6 107 -21 165
-33 58 -12 123 -27 145 -34 22 -7 78 -23 125 -35 47 -12 130 -36 185 -52 55
-16 129 -37 165 -47 112 -32 244 -70 279 -82 124 -41 334 -52 456 -24 236 55
455 193 583 368 58 78 112 171 112 193 0 3 6 20 14 37 24 54 55 216 65 346 11
128 2 319 -20 451 -15 94 -39 212 -44 220 -2 3 -6 17 -9 31 -20 106 -76 275
-159 489 -76 193 -390 859 -491 1040 -29 52 -84 151 -121 220 -38 69 -82 147
-99 175 -17 27 -35 57 -41 67 -15 26 -138 230 -215 357 -39 63 -76 121 -83
130 -8 9 -36 48 -62 86 -26 39 -51 72 -54 75 -4 3 -22 25 -41 50 -42 56 -251
270 -263 270 -4 0 -14 6 -22 13 -57 54 -159 114 -295 175 -48 21 -161 53 -248
71 -63 13 -288 12 -352 -1z m-236 -739 c308 -54 580 -243 783 -544 58 -85 89
-152 127 -268 69 -211 67 -408 -5 -605 l-19 -52 73 49 c91 62 135 83 222 109
311 94 619 31 940 -193 202 -141 337 -315 408 -525 40 -119 51 -186 51 -330 0
-149 -17 -250 -60 -353 -14 -34 -26 -66 -28 -72 -5 -26 -91 -169 -147 -245
-180 -240 -415 -403 -735 -509 -326 -107 -576 -137 -1329 -156 -319 -8 -673
-53 -798 -100 -20 -8 -40 -15 -45 -15 -11 0 -103 -31 -137 -46 -87 -38 -167
-77 -223 -108 -73 -41 -77 -42 -67 -18 8 22 21 83 41 197 19 110 22 519 4 628
-27 172 -52 305 -64 352 -7 28 -19 77 -26 110 -7 33 -26 116 -42 185 -16 69
-31 132 -33 140 -2 8 -15 65 -30 125 -25 108 -36 162 -56 279 -5 33 -12 62
-14 66 -2 3 -6 33 -10 65 -3 33 -11 87 -17 120 -14 82 -14 506 1 575 6 30 13
73 15 95 18 175 132 441 260 609 142 186 299 312 477 384 130 53 346 76 483
51z"/>
<path d="M3390 3850 c-171 -46 -261 -100 -396 -234 -88 -89 -134 -150 -214
-286 -18 -30 -80 -197 -95 -255 -19 -77 -45 -309 -44 -405 0 -133 46 -495 74
-590 2 -8 6 -26 9 -40 2 -14 13 -63 24 -110 11 -47 23 -98 25 -115 3 -16 17
-75 31 -130 15 -55 29 -115 31 -134 3 -18 7 -37 10 -41 3 -5 10 -32 16 -62 71
-361 76 -613 18 -863 -10 -43 -16 -81 -14 -84 2 -2 31 12 64 32 32 19 96 51
142 70 116 48 105 44 227 77 38 11 164 36 217 44 100 15 277 27 545 36 469 16
630 31 815 77 349 86 582 219 758 433 70 85 167 244 167 272 0 8 4 18 10 24 5
5 21 56 35 113 48 193 26 400 -59 571 -46 91 -57 108 -114 176 -67 79 -159
158 -252 212 -76 45 -210 110 -242 116 -13 3 -52 12 -88 20 -142 32 -239 29
-402 -12 -45 -12 -150 -65 -196 -100 -18 -14 -34 -23 -36 -21 -3 2 6 40 19 84
21 71 24 97 21 225 -3 125 -6 156 -29 223 -55 164 -132 283 -277 427 -185 185
-383 271 -617 269 -80 -1 -139 -7 -183 -19z"/>
</g>
</svg>
